<svg xmlns="http://www.w3.org/2000/svg" version="1.0" width="256pt" height="256pt" viewBox="0 0 256 256"
    preserveAspectRatio="xMidYMid meet">

    <g transform="translate(0,256) scale(0.1,-0.1)" fill="currentColor" stroke="none">
        <path
            d="M509 2211 l-29 -29 0 -902 0 -902 29 -29 c37 -37 65 -37 102 0 l29 29 0 291 0 291 608 0 c693 0 681 -1 757 75 32 32 49 59 61 101 24 82 10 129 -86 297 -48 83 -80 150 -80 167 0 17 32 83 80 166 95 165 110 216 85 299 -11 38 -29 69 -58 99 -74 78 -58 76 -810 76 l-659 0 -29 -29z m1386 -156 c15 -14 25 -36 25 -51 0 -16 -34 -88 -80 -170 -133 -233 -133 -238 4 -476 42 -74 76 -145 76 -159 0 -15 -9 -38 -21 -53 l-20 -26 -620 0 -619 0 0 480 0 480 615 0 616 0 24 -25z" />
    </g>
</svg>