<svg version="1.0" xmlns="http://www.w3.org/2000/svg" width="256.000000pt" height="256.000000pt"
    viewBox="0 0 256.000000 256.000000" preserveAspectRatio="xMidYMid meet">

    <g transform="translate(0.000000,256.000000) scale(0.100000,-0.100000)" fill="currentColor" stroke="none">
        <path d="M623 2210 c-18 -10 -42 -39 -55 -62 l-23 -43 0 -820 0 -820 22 -47
c29 -62 70 -88 143 -88 33 0 72 8 98 20 24 11 175 108 335 217 161 109 398
268 527 354 129 86 247 167 261 181 109 103 115 243 14 344 -46 45 -1071 734
-1140 765 -54 25 -140 25 -182 -1z" />
    </g>
</svg>