<svg version="1.0" xmlns="http://www.w3.org/2000/svg" width="256.000000pt" height="256.000000pt"
    viewBox="0 0 256.000000 256.000000" preserveAspectRatio="xMidYMid meet">

    <g transform="translate(0.000000,256.000000) scale(0.100000,-0.100000)" fill="currentColor" stroke="none">
        <path d="M1245 2341 c-11 -5 -31 -21 -45 -36 l-25 -27 -3 -443 -3 -444 -444
-3 -445 -3 -32 -32 c-46 -46 -46 -100 0 -146 l32 -32 445 -3 445 -3 0 -372 c1
-542 -1 -510 38 -549 44 -45 100 -45 146 1 l31 31 3 445 3 444 444 3 445 3 32
32 c46 46 46 100 0 146 l-32 32 -445 3 -444 3 -3 444 -3 445 -30 30 c-32 32
-78 45 -110 31z" />
    </g>
</svg>