<svg version="1.0" xmlns="http://www.w3.org/2000/svg" width="256pt" height="256pt" viewBox="0 0 256 256"
    preserveAspectRatio="xMidYMid meet">

    <g transform="translate(0,256) scale(0.10,-0.10)" fill="currentColor" stroke="none">
        <path d="M1200 2336 c-279 -58 -528 -222 -681 -447 -49 -73 -123 -225 -140
-291 -7 -27 -16 -48 -20 -48 -4 0 -37 58 -74 130 -36 71 -74 134 -85 140 -47
25 -104 1 -115 -50 -6 -25 14 -69 130 -289 127 -243 138 -261 171 -271 33 -11
42 -7 291 123 268 141 291 158 277 211 -8 34 -37 57 -71 58 -19 1 -92 -32
-202 -91 -96 -50 -175 -91 -177 -91 -20 0 33 175 83 275 93 187 273 355 463
431 161 65 342 87 497 60 358 -62 633 -304 739 -651 25 -82 28 -105 28 -250 1
-137 -3 -171 -22 -239 -105 -365 -387 -616 -756 -672 -212 -33 -447 17 -621
132 -87 56 -112 62 -148 34 -21 -17 -27 -30 -27 -60 0 -32 6 -44 38 -70 49
-40 195 -116 285 -146 147 -50 352 -68 507 -44 101 16 246 66 342 118 281 152
475 412 544 728 23 107 23 321 0 428 -89 408 -381 716 -786 827 -97 27 -371
35 -470 15z" />
    </g>
</svg>