<?xml version="1.0" standalone="no"?>
<!DOCTYPE svg PUBLIC "-//W3C//DTD SVG 20010904//EN"
 "http://www.w3.org/TR/2001/REC-SVG-20010904/DTD/svg10.dtd">
<svg version="1.0" xmlns="http://www.w3.org/2000/svg"
 width="115.000000pt" height="105.000000pt" viewBox="0 0 115.000000 105.000000"
 preserveAspectRatio="xMidYMid meet">

<g transform="translate(0.000000,105.000000) scale(0.100000,-0.100000)"
fill="#000000" stroke="none">
<path d="M352 823 c-23 -9 -42 -60 -35 -95 10 -56 32 -91 91 -146 l57 -53 -51
-47 c-29 -26 -61 -63 -73 -82 -28 -47 -29 -122 -1 -150 18 -18 33 -20 194 -20
96 0 182 3 191 6 26 10 46 59 38 96 -10 54 -32 89 -92 145 l-56 53 56 52 c59
56 82 92 92 146 8 37 -12 86 -38 96 -20 7 -354 7 -373 -1z m368 -48 c25 -30
-5 -93 -76 -162 -36 -36 -64 -72 -64 -83 0 -11 29 -49 69 -87 53 -53 70 -77
75 -106 12 -65 6 -67 -184 -67 -190 0 -197 3 -186 67 6 30 23 53 77 104 47 46
69 74 69 90 0 17 -20 43 -64 84 -49 46 -67 70 -76 103 -18 70 -14 72 180 72
138 0 170 -3 180 -15z"/>
</g>
</svg>
